<svg xmlns="http://www.w3.org/2000/svg" version="1.1" xmlns:xlink="http://www.w3.org/1999/xlink" xmlns:svgjs="http://svgjs.dev/svgjs" width="1000" height="1000" viewBox="0 0 1000 1000"><rect width="1000" height="1000" fill="#0c1d36"></rect><g transform="matrix(0.7,0,0,0.7,149.57575757575756,282.1265587044535)"><svg viewBox="0 0 396 247" data-background-color="#0c1d36" preserveAspectRatio="xMidYMid meet" height="623" width="1000" xmlns="http://www.w3.org/2000/svg" xmlns:xlink="http://www.w3.org/1999/xlink"><g id="tight-bounds" transform="matrix(1,0,0,1,0.2400000000000091,-0.09999999999999432)"><svg viewBox="0 0 395.52 247.2" height="247.2" width="395.52"><g><svg></svg></g><g><svg viewBox="0 0 395.52 247.2" height="247.2" width="395.52"><g transform="matrix(1,0,0,1,105.81428163568773,47.215199999999996)"><svg viewBox="0 0 183.8914367286245 152.7696" height="152.7696" width="183.8914367286245"><g><svg viewBox="0 0 183.8914367286245 152.7696" height="152.7696" width="183.8914367286245"><g><svg viewBox="0 0 183.8914367286245 152.7696" height="152.7696" width="183.8914367286245"><g><svg viewBox="0 0 183.8914367286245 152.7696" height="152.7696" width="183.8914367286245"><g><svg viewBox="0 0 183.8914367286245 152.7696" height="152.7696" width="183.8914367286245"><g><svg viewBox="0 0 183.8914367286245 152.7696" height="152.7696" width="183.8914367286245"><g transform="matrix(1,0,0,1,0,0)"><svg width="183.8914367286245" viewBox="4.199999809265137 -32.66999816894531 39.52000045776367 32.839996337890625" height="152.7696" data-palette-color="#f9cc0b"><path d="M11.28 0L8.96 0Q5.37 0 4.2 0.15L4.2 0.15 4.2-32.62Q4.79-32.47 6.63-32.47 8.47-32.47 10.91-32.57L10.91-32.57 10.91-5.86 15.97-5.86Q18.16-5.86 19.48-6.01L19.48-6.01Q19.31-0.29 19.31-0.07L19.31-0.07 19.31 0.17Q16.92 0 11.28 0L11.28 0ZM42.11-20.07L42.19-14.04Q41.01-14.16 39.16-14.16L39.16-14.16 31.76-14.16 31.76 0 25.07 0 25.07-32.64Q25.73-32.59 26.58-32.57L26.58-32.57 28.39-32.52Q30.25-32.47 32.25-32.47L32.25-32.47Q38.25-32.47 43.72-32.67L43.72-32.67Q43.45-30.52 43.45-26.93L43.45-26.93Q43.45-26.54 43.5-26.34L43.5-26.34 43.45-26.27Q42.16-26.64 39.84-26.64L39.84-26.64 31.76-26.64 31.76-19.92 38.89-19.92Q41.57-19.92 42.11-20.07L42.11-20.07Z" opacity="1" transform="matrix(1,0,0,1,0,0)" fill="#f9cc0b" class="undefined-text-0" data-fill-palette-color="primary" id="text-0"></path></svg></g></svg></g></svg></g></svg></g></svg></g></svg></g></svg></g><path d="M288.116 41.215L288.116 0 40.916 0 40.916 247.2 288.116 247.2 288.116 205.985 274.339 205.985 274.339 233.423 54.693 233.423 54.693 13.777 274.339 13.777 274.339 41.215Z" fill="#f9cc0b" stroke="transparent" data-fill-palette-color="primary"></path></svg></g><defs></defs></svg><rect width="395.52" height="247.2" fill="none" stroke="none" visibility="hidden"></rect></g></svg></g></svg>